<mxfile host="app.diagrams.net" modified="2024-02-24T22:58:07.518Z" agent="Mozilla/5.0 (Macintosh; Intel Mac OS X 10_15_7) AppleWebKit/605.1.15 (KHTML, like Gecko) Version/16.5 Safari/605.1.15" etag="AhYVln9QDav92rRHdYRm" version="23.1.5" type="github">
  <diagram name="第 1 页" id="Too3lcg1m8DX6pFnh_Cw">
    <mxGraphModel dx="1194" dy="562" grid="1" gridSize="10" guides="1" tooltips="1" connect="1" arrows="1" fold="1" page="1" pageScale="1" pageWidth="827" pageHeight="1169" math="0" shadow="0">
      <root>
        <mxCell id="0" />
        <mxCell id="1" parent="0" />
        <mxCell id="oFetxZ3z4W1hCCLSyc-6-20" value="&lt;b style=&quot;border-color: var(--border-color);&quot;&gt;FourAttributes&amp;nbsp;&lt;br&gt;// &amp;nbsp;the class will properly weigh grade and has the four &amp;nbsp;attributes of each assignment: pointTotal, earnedPoints, assignmentPercentage and WeightedGrade.&amp;nbsp;&lt;/b&gt;The total weighted grade will be calculated and the final grade will come out. And it has the method to check whether the total assignment percentage the user inputs is equal to 100." style="swimlane;fontStyle=1;align=center;verticalAlign=top;childLayout=stackLayout;horizontal=1;startSize=100;horizontalStack=0;resizeParent=1;resizeParentMax=0;resizeLast=0;collapsible=1;marginBottom=0;whiteSpace=wrap;html=1;" vertex="1" parent="1">
          <mxGeometry x="90" y="780" width="410" height="724" as="geometry" />
        </mxCell>
        <mxCell id="oFetxZ3z4W1hCCLSyc-6-21" value="&lt;div style=&quot;border-color: var(--border-color);&quot;&gt;attributes / properties&lt;/div&gt;&lt;div style=&quot;border-color: var(--border-color);&quot;&gt;&lt;br style=&quot;border-color: var(--border-color);&quot;&gt;&lt;/div&gt;&lt;div style=&quot;border-color: var(--border-color);&quot;&gt;- Double pointTotal&lt;/div&gt;&lt;div style=&quot;border-color: var(--border-color);&quot;&gt;// the full points of each assignment&lt;/div&gt;&lt;div style=&quot;border-color: var(--border-color);&quot;&gt;&lt;br&gt;&lt;/div&gt;&lt;div style=&quot;border-color: var(--border-color);&quot;&gt;- Double earnedPoints&lt;/div&gt;&lt;div style=&quot;border-color: var(--border-color);&quot;&gt;// the points that the student earned in the assignment&lt;/div&gt;&lt;div style=&quot;border-color: var(--border-color);&quot;&gt;&lt;br&gt;&lt;/div&gt;&lt;div style=&quot;border-color: var(--border-color);&quot;&gt;- Double assignmentPercentage&lt;/div&gt;&lt;div style=&quot;border-color: var(--border-color);&quot;&gt;// the percentage that each assignment accounts for&lt;/div&gt;&lt;div style=&quot;border-color: var(--border-color);&quot;&gt;&lt;br&gt;&lt;/div&gt;&lt;div style=&quot;border-color: var(--border-color);&quot;&gt;- Double WeightedGrade&lt;/div&gt;&lt;div style=&quot;border-color: var(--border-color);&quot;&gt;// the weighted grade that the student earned in the assignment&amp;nbsp;&lt;/div&gt;" style="text;strokeColor=none;fillColor=none;align=left;verticalAlign=top;spacingLeft=4;spacingRight=4;overflow=hidden;rotatable=0;points=[[0,0.5],[1,0.5]];portConstraint=eastwest;whiteSpace=wrap;html=1;" vertex="1" parent="oFetxZ3z4W1hCCLSyc-6-20">
          <mxGeometry y="100" width="410" height="234" as="geometry" />
        </mxCell>
        <mxCell id="oFetxZ3z4W1hCCLSyc-6-22" value="" style="line;strokeWidth=1;fillColor=none;align=left;verticalAlign=middle;spacingTop=-1;spacingLeft=3;spacingRight=3;rotatable=0;labelPosition=right;points=[];portConstraint=eastwest;strokeColor=inherit;" vertex="1" parent="oFetxZ3z4W1hCCLSyc-6-20">
          <mxGeometry y="334" width="410" height="8" as="geometry" />
        </mxCell>
        <mxCell id="oFetxZ3z4W1hCCLSyc-6-23" value="&lt;p style=&quot;border-color: var(--border-color); margin: 0px 0px 0px 4px;&quot;&gt;+ method1: FourAttributes(double pointTotal, double earnedPoints, double assignmentPercentage)&lt;/p&gt;&lt;p style=&quot;border-color: var(--border-color); margin: 0px 0px 0px 4px;&quot;&gt;//&amp;nbsp;Initialize the instance variables&lt;/p&gt;&lt;p style=&quot;border-color: var(--border-color); margin: 0px 0px 0px 4px;&quot;&gt;&lt;br&gt;&lt;/p&gt;&lt;p style=&quot;border-color: var(--border-color); margin: 0px 0px 0px 4px;&quot;&gt;+ method2: FourAttributes(double WeightedGrade, double assignmentPercentage)&lt;/p&gt;&lt;p style=&quot;border-color: var(--border-color); margin: 0px 0px 0px 4px;&quot;&gt;// Initialize the instance variables&lt;/p&gt;&lt;p style=&quot;border-color: var(--border-color); margin: 0px 0px 0px 4px;&quot;&gt;&lt;br&gt;&lt;/p&gt;&lt;p style=&quot;border-color: var(--border-color); margin: 0px 0px 0px 4px;&quot;&gt;+ method3:&amp;nbsp;calculateWeightedGrade(): void&lt;/p&gt;&lt;p style=&quot;border-color: var(--border-color); margin: 0px 0px 0px 4px;&quot;&gt;// calculate the weighted grade&lt;/p&gt;&lt;p style=&quot;border-color: var(--border-color); margin: 0px 0px 0px 4px;&quot;&gt;&lt;br&gt;&lt;/p&gt;&lt;p style=&quot;border-color: var(--border-color); margin: 0px 0px 0px 4px;&quot;&gt;+ method4:&amp;nbsp;checkTotalAssignmentPercentage(): void&lt;br&gt;&lt;/p&gt;&lt;p style=&quot;border-color: var(--border-color); margin: 0px 0px 0px 4px;&quot;&gt;// check if the total assignment percentage is equal to 100&lt;/p&gt;&lt;p style=&quot;border-color: var(--border-color); margin: 0px 0px 0px 4px;&quot;&gt;&lt;br&gt;&lt;/p&gt;&lt;p style=&quot;border-color: var(--border-color); margin: 0px 0px 0px 4px;&quot;&gt;+ method5:&amp;nbsp;generateFinalGrade(Double WeightedGrade): void&lt;/p&gt;&lt;p style=&quot;border-color: var(--border-color); margin: 0px 0px 0px 4px;&quot;&gt;//&amp;nbsp;Determine the letter grade&lt;/p&gt;&lt;p style=&quot;border-color: var(--border-color); margin: 0px 0px 0px 4px;&quot;&gt;&lt;br&gt;&lt;/p&gt;&lt;p style=&quot;border-color: var(--border-color); margin: 0px 0px 0px 4px;&quot;&gt;+ method6:&amp;nbsp;getWeightedGrade(): Double&lt;/p&gt;&lt;p style=&quot;border-color: var(--border-color); margin: 0px 0px 0px 4px;&quot;&gt;// get the total weighted grade&lt;/p&gt;&lt;p style=&quot;border-color: var(--border-color); margin: 0px 0px 0px 4px;&quot;&gt;&lt;br&gt;&lt;/p&gt;&lt;p style=&quot;border-color: var(--border-color); margin: 0px 0px 0px 4px;&quot;&gt;+ method7:&amp;nbsp;setWeightedGrade(Double totalWeightedGrade): void&lt;/p&gt;&lt;p style=&quot;border-color: var(--border-color); margin: 0px 0px 0px 4px;&quot;&gt;// set the total weighted grade&lt;/p&gt;" style="text;strokeColor=none;fillColor=none;align=left;verticalAlign=top;spacingLeft=4;spacingRight=4;overflow=hidden;rotatable=0;points=[[0,0.5],[1,0.5]];portConstraint=eastwest;whiteSpace=wrap;html=1;" vertex="1" parent="oFetxZ3z4W1hCCLSyc-6-20">
          <mxGeometry y="342" width="410" height="382" as="geometry" />
        </mxCell>
        <mxCell id="oFetxZ3z4W1hCCLSyc-6-24" value="&lt;p style=&quot;margin:0px;margin-top:4px;text-align:center;&quot;&gt;&lt;i&gt;&amp;lt;&amp;lt;Interface&amp;gt;&amp;gt;&lt;/i&gt;&lt;br&gt;&lt;b&gt;main&lt;/b&gt;&lt;/p&gt;&lt;p style=&quot;margin:0px;margin-top:4px;text-align:center;&quot;&gt;&lt;b&gt;&amp;nbsp;// ask the user to input all the attributes of each assignment and calculate the total weighted grade and the final grade. Meanwhile, check whether the total weight is 100.&lt;/b&gt;&lt;/p&gt;&lt;hr size=&quot;1&quot;&gt;&lt;p style=&quot;margin:0px;margin-left:4px;&quot;&gt;attributes / properties&lt;br&gt;&lt;/p&gt;&lt;p style=&quot;margin:0px;margin-left:4px;&quot;&gt;&lt;br&gt;&lt;/p&gt;&lt;p style=&quot;margin:0px;margin-left:4px;&quot;&gt;+ int numberOfAssignments&lt;/p&gt;&lt;p style=&quot;margin:0px;margin-left:4px;&quot;&gt;// the total number of the assignments&lt;/p&gt;&lt;p style=&quot;margin:0px;margin-left:4px;&quot;&gt;&lt;br&gt;&lt;/p&gt;&lt;p style=&quot;margin:0px;margin-left:4px;&quot;&gt;+ double totalAssignmentPercentage&lt;/p&gt;&lt;p style=&quot;margin:0px;margin-left:4px;&quot;&gt;// the total percentage that all the assignments account for&lt;/p&gt;&lt;p style=&quot;margin:0px;margin-left:4px;&quot;&gt;&amp;nbsp;&lt;/p&gt;&lt;p style=&quot;margin:0px;margin-left:4px;&quot;&gt;+&amp;nbsp;double [] pointTotal&lt;/p&gt;&lt;p style=&quot;margin:0px;margin-left:4px;&quot;&gt;// the list of the full points of each assignment&lt;/p&gt;&lt;p style=&quot;margin:0px;margin-left:4px;&quot;&gt;&lt;br&gt;&lt;/p&gt;&lt;p style=&quot;border-color: var(--border-color); margin: 0px 0px 0px 4px;&quot;&gt;+ double []&amp;nbsp;earnedPoints&amp;nbsp;&lt;/p&gt;&lt;p style=&quot;border-color: var(--border-color); margin: 0px 0px 0px 4px;&quot;&gt;// the list of the points that the student earned in each assignment&lt;/p&gt;&lt;p style=&quot;border-color: var(--border-color); margin: 0px 0px 0px 4px;&quot;&gt;&lt;br style=&quot;border-color: var(--border-color);&quot;&gt;&lt;/p&gt;&lt;p style=&quot;border-color: var(--border-color); margin: 0px 0px 0px 4px;&quot;&gt;+ double [] assignmentPercentages&lt;/p&gt;&lt;p style=&quot;border-color: var(--border-color); margin: 0px 0px 0px 4px;&quot;&gt;// the list of the percentages that each assignment accounts for&lt;/p&gt;&lt;p style=&quot;border-color: var(--border-color); margin: 0px 0px 0px 4px;&quot;&gt;&lt;br style=&quot;border-color: var(--border-color);&quot;&gt;&lt;/p&gt;&lt;p style=&quot;border-color: var(--border-color); margin: 0px 0px 0px 4px;&quot;&gt;+ double totalWeighedGrade&lt;/p&gt;&lt;p style=&quot;border-color: var(--border-color); margin: 0px 0px 0px 4px;&quot;&gt;// the variable to store all the weighted grade of each assignment&lt;/p&gt;&lt;p style=&quot;border-color: var(--border-color); margin: 0px 0px 0px 4px;&quot;&gt;&lt;br style=&quot;border-color: var(--border-color);&quot;&gt;&lt;/p&gt;&lt;p style=&quot;border-color: var(--border-color); margin: 0px 0px 0px 4px;&quot;&gt;+&amp;nbsp;FourAttributes fourAttributes&amp;nbsp;&lt;/p&gt;&lt;p style=&quot;border-color: var(--border-color); margin: 0px 0px 0px 4px;&quot;&gt;//&amp;nbsp;Create an instance of FourAttributes of each assignment&lt;/p&gt;&lt;p style=&quot;border-color: var(--border-color); margin: 0px 0px 0px 4px;&quot;&gt;&lt;br style=&quot;border-color: var(--border-color);&quot;&gt;&lt;/p&gt;&lt;p style=&quot;border-color: var(--border-color); margin: 0px 0px 0px 4px;&quot;&gt;+ FourAttributes FinalGradeandcheckpercentage&lt;/p&gt;&lt;p style=&quot;border-color: var(--border-color); margin: 0px 0px 0px 4px;&quot;&gt;//&amp;nbsp;Create an instance of FourAttributes of all the assignment as a whole&lt;/p&gt;&lt;p style=&quot;margin:0px;margin-left:4px;&quot;&gt;&lt;br&gt;&lt;/p&gt;&lt;p style=&quot;margin:0px;margin-left:4px;&quot;&gt;&lt;br&gt;&lt;/p&gt;&lt;p style=&quot;margin:0px;margin-left:4px;&quot;&gt;&lt;br&gt;&lt;/p&gt;&lt;hr size=&quot;1&quot;&gt;&lt;p style=&quot;margin:0px;margin-left:4px;&quot;&gt;+ method1:&amp;nbsp;calculateWeightedGrade&lt;/p&gt;&lt;p style=&quot;margin:0px;margin-left:4px;&quot;&gt;// this method is used to calculate the weighted grade of each assignment&amp;nbsp;&lt;/p&gt;&lt;p style=&quot;margin:0px;margin-left:4px;&quot;&gt;&lt;br&gt;&lt;/p&gt;&lt;p style=&quot;margin:0px;margin-left:4px;&quot;&gt;+ method2:&amp;nbsp;getWeightedGrade&lt;/p&gt;&lt;p style=&quot;margin:0px;margin-left:4px;&quot;&gt;// this method is used to get the weighted grade of each assignment&lt;/p&gt;&lt;p style=&quot;margin:0px;margin-left:4px;&quot;&gt;&lt;br&gt;&lt;/p&gt;&lt;p style=&quot;margin:0px;margin-left:4px;&quot;&gt;+ method3:&amp;nbsp;checkTotalAssignmentPercentage&lt;/p&gt;&lt;p style=&quot;margin:0px;margin-left:4px;&quot;&gt;// this method is used to check whether the total assignment percentage is&amp;nbsp;&lt;/p&gt;&lt;p style=&quot;margin:0px;margin-left:4px;&quot;&gt;equal to 100&lt;/p&gt;&lt;p style=&quot;margin:0px;margin-left:4px;&quot;&gt;&lt;br&gt;&lt;/p&gt;&lt;p style=&quot;margin:0px;margin-left:4px;&quot;&gt;+ method4:&amp;nbsp;generateFinalGrade&lt;/p&gt;&lt;p style=&quot;margin:0px;margin-left:4px;&quot;&gt;// this method is used to generate the final grade of the student&amp;nbsp;&lt;/p&gt;" style="verticalAlign=top;align=left;overflow=fill;html=1;whiteSpace=wrap;" vertex="1" parent="1">
          <mxGeometry x="90" y="30" width="410" height="680" as="geometry" />
        </mxCell>
        <mxCell id="oFetxZ3z4W1hCCLSyc-6-33" value="Scanner" style="swimlane;fontStyle=1;align=center;verticalAlign=top;childLayout=stackLayout;horizontal=1;startSize=26;horizontalStack=0;resizeParent=1;resizeParentMax=0;resizeLast=0;collapsible=1;marginBottom=0;whiteSpace=wrap;html=1;" vertex="1" parent="1">
          <mxGeometry x="600" y="50" width="160" height="80" as="geometry" />
        </mxCell>
        <mxCell id="oFetxZ3z4W1hCCLSyc-6-35" value="" style="line;strokeWidth=1;fillColor=none;align=left;verticalAlign=middle;spacingTop=-1;spacingLeft=3;spacingRight=3;rotatable=0;labelPosition=right;points=[];portConstraint=eastwest;strokeColor=inherit;" vertex="1" parent="oFetxZ3z4W1hCCLSyc-6-33">
          <mxGeometry y="26" width="160" height="54" as="geometry" />
        </mxCell>
        <mxCell id="oFetxZ3z4W1hCCLSyc-6-37" value="Format" style="swimlane;fontStyle=1;align=center;verticalAlign=top;childLayout=stackLayout;horizontal=1;startSize=26;horizontalStack=0;resizeParent=1;resizeParentMax=0;resizeLast=0;collapsible=1;marginBottom=0;whiteSpace=wrap;html=1;" vertex="1" parent="1">
          <mxGeometry x="600" y="220" width="160" height="100" as="geometry" />
        </mxCell>
        <mxCell id="oFetxZ3z4W1hCCLSyc-6-39" value="" style="line;strokeWidth=1;fillColor=none;align=left;verticalAlign=middle;spacingTop=-1;spacingLeft=3;spacingRight=3;rotatable=0;labelPosition=right;points=[];portConstraint=eastwest;strokeColor=inherit;" vertex="1" parent="oFetxZ3z4W1hCCLSyc-6-37">
          <mxGeometry y="26" width="160" height="74" as="geometry" />
        </mxCell>
        <mxCell id="oFetxZ3z4W1hCCLSyc-6-42" value="" style="endArrow=block;dashed=1;endFill=0;endSize=12;html=1;rounded=0;" edge="1" parent="1">
          <mxGeometry width="160" relative="1" as="geometry">
            <mxPoint x="500" y="89.6" as="sourcePoint" />
            <mxPoint x="600" y="89.6" as="targetPoint" />
          </mxGeometry>
        </mxCell>
        <mxCell id="oFetxZ3z4W1hCCLSyc-6-43" value="" style="endArrow=block;dashed=1;endFill=0;endSize=12;html=1;rounded=0;" edge="1" parent="1">
          <mxGeometry width="160" relative="1" as="geometry">
            <mxPoint x="500" y="269.6" as="sourcePoint" />
            <mxPoint x="600" y="269.6" as="targetPoint" />
          </mxGeometry>
        </mxCell>
        <mxCell id="oFetxZ3z4W1hCCLSyc-6-44" value="" style="endArrow=block;dashed=1;endFill=0;endSize=12;html=1;rounded=0;entryX=0.463;entryY=0;entryDx=0;entryDy=0;entryPerimeter=0;" edge="1" parent="1" target="oFetxZ3z4W1hCCLSyc-6-20">
          <mxGeometry width="160" relative="1" as="geometry">
            <mxPoint x="280" y="710" as="sourcePoint" />
            <mxPoint x="280" y="767.828" as="targetPoint" />
            <Array as="points">
              <mxPoint x="280.01" y="730" />
            </Array>
          </mxGeometry>
        </mxCell>
      </root>
    </mxGraphModel>
  </diagram>
</mxfile>
